<svg xmlns="http://www.w3.org/2000/svg" width="825.616" height="211.8714" viewBox="0 0 825.616 211.8714"><defs><style>.cls-1{fill:#f0a03f;}.cls-2{fill:#e49239;}.cls-3{fill:#f4e4a3;}.cls-4{fill:#e7d48a;}.cls-5{fill:#f1d15e;}.cls-6{fill:#e5c553;}.cls-7{fill:#4c4c4b;}.cls-8{fill:#c3c3c3;}.cls-9{fill:#6b6b67;}.cls-10{fill:#969695;}.cls-11{fill:#6d6d6d;}.cls-12{fill:#3d3d3b;}.cls-13{fill:#e2b445;}.cls-14{fill:#ffcd4c;}.cls-15{fill:#ffcc4a;}.cls-16{fill:#353535;}</style></defs><title>WhatSize_HeaderLogo</title><g id="Header"><g id="Header_Background_" data-name="Header (Background)"><g id="Star"><path id="SVGCleanerId_0" data-name="SVGCleanerId 0" class="cls-1" d="M832.6754,49.1279a47.3133,47.3133,0,0,1-6.6084-1.6871c-15.3207-5.1522-23.9815-17.67-26.831-33.7841a1.3941,1.3941,0,0,0-2.7433,0c-3.3117,18.7248-14.3338,31.9666-33.3443,35.495a1.394,1.394,0,0,0,.0009,2.7392c18.835,3.4839,30.05,16.7006,33.35,35.2761a1.3929,1.3929,0,0,0,2.7433-.0029c1.68-9.5791,6.3979-22.5933,19.3319-30.1917a43.1906,43.1906,0,0,1,14.1038-5.1039,1.393,1.393,0,0,0-.0031-2.7406Z" transform="translate(-8.2034 -9.3226)"/><path id="SVGCleanerId_0-2" data-name="SVGCleanerId 0" class="cls-1" d="M832.6754,49.1279a47.3133,47.3133,0,0,1-6.6084-1.6871c-15.3207-5.1522-23.9815-17.67-26.831-33.7841a1.3941,1.3941,0,0,0-2.7433,0c-3.3117,18.7248-14.3338,31.9666-33.3443,35.495a1.394,1.394,0,0,0,.0009,2.7392c18.835,3.4839,30.05,16.7006,33.35,35.2761a1.3929,1.3929,0,0,0,2.7433-.0029c1.68-9.5791,6.3979-22.5933,19.3319-30.1917a43.1906,43.1906,0,0,1,14.1038-5.1039,1.393,1.393,0,0,0-.0031-2.7406Z" transform="translate(-8.2034 -9.3226)"/><path class="cls-2" d="M777.7043,43.7255a42.6949,42.6949,0,0,1-14.5559,5.426,1.394,1.394,0,0,0,.0009,2.7392c18.835,3.4839,30.05,16.7006,33.35,35.2761a1.3929,1.3929,0,0,0,2.7433-.0029A49.6787,49.6787,0,0,1,805.7078,69.6C800.728,55.7427,791.215,47.117,777.7043,43.7255Z" transform="translate(-8.2034 -9.3226)"/><path class="cls-3" d="M771.4887,85.2631c-5.42-1.7974-9.0047-5.8362-10.749-11.4181a1.393,1.393,0,0,0-2.6587-.0008,16.7537,16.7537,0,0,1-10.7492,11.4133,1.3941,1.3941,0,0,0,0,2.6356,16.744,16.744,0,0,1,10.7506,11.4191,1.393,1.393,0,0,0,2.66-.0047,17.0726,17.0726,0,0,1,6.6088-9.3678l0,0c3.4164-2.3405,5.0936-1.6614,5.0911-3.3564A1.3921,1.3921,0,0,0,771.4887,85.2631Z" transform="translate(-8.2034 -9.3226)"/><path class="cls-4" d="M752.8853,82.24c-.0392-.0135-.0757-.0322-.113-.0489a16.4453,16.4453,0,0,1-5.44,3.0666,1.3941,1.3941,0,0,0,0,2.6356,16.7438,16.7438,0,0,1,10.7506,11.4191,1.4,1.4,0,0,0,1.3319.9768c1.9614-.0035.9181-2.3463,4.1864-6.7345A16.7137,16.7137,0,0,0,752.8853,82.24Z" transform="translate(-8.2034 -9.3226)"/><path class="cls-5" d="M752.8492,21.721c-5.441-1.8044-9.0106-5.8589-10.7492-11.4181a1.3929,1.3929,0,0,0-2.6585-.0009,16.7552,16.7552,0,0,1-10.7492,11.4136,1.3941,1.3941,0,0,0,0,2.6356A16.7446,16.7446,0,0,1,739.4431,35.77a1.3931,1.3931,0,0,0,2.66-.0044,16.6805,16.6805,0,0,1,6.6094-9.368c3.4067-2.3343,5.0932-1.6705,5.0909-3.3565A1.3931,1.3931,0,0,0,752.8492,21.721Z" transform="translate(-8.2034 -9.3226)"/><path class="cls-6" d="M733.708,18.998c-3.84,3.07-5.9573,2.2117-5.9573,4.0354a1.3921,1.3921,0,0,0,.9418,1.3175A16.745,16.745,0,0,1,739.4431,35.77a1.4,1.4,0,0,0,1.3317.9768c1.8634-.0033.9681-2.1792,3.9247-6.3782A16.8477,16.8477,0,0,0,733.708,18.998Z" transform="translate(-8.2034 -9.3226)"/></g></g><path class="cls-7" d="M229.5774,160.9011h3.64v16.52h10.2481v3.08H229.5774Z" transform="translate(-8.2034 -9.3226)"/><path class="cls-7" d="M244.6413,160.9851a2.1319,2.1319,0,0,1,2.24-2.1,2.0835,2.0835,0,0,1,2.24,2.0156,2.2426,2.2426,0,0,1-4.48.084Zm.4761,4.5639h3.5v14.9522h-3.5Z" transform="translate(-8.2034 -9.3226)"/><path class="cls-7" d="M267.1531,165.549v12.6841c0,5.4322-2.8277,7.896-8.064,7.896a11.8841,11.8841,0,0,1-7.28-2.1279l1.5679-2.6318a9.0344,9.0344,0,0,0,5.5161,1.7919c3.3042,0,4.76-1.5122,4.76-4.5361v-.7842a6.58,6.58,0,0,1-5.0118,1.9883c-4.2841,0-7.56-2.9121-7.56-7.2519s3.2759-7.1963,7.56-7.1963a6.4733,6.4733,0,0,1,5.18,2.1562V165.549Zm-3.4439,7.0284a4.2037,4.2037,0,0,0-4.5361-4.2281c-2.66,0-4.564,1.708-4.564,4.2281a4.5583,4.5583,0,0,0,9.1,0Z" transform="translate(-8.2034 -9.3226)"/><path class="cls-7" d="M285.5769,171.9333v8.5679h-3.5v-8.12c0-2.66-1.3159-3.9478-3.5562-3.9478-2.4917,0-4.1718,1.5117-4.1718,4.5078v7.56h-3.5V159.7253h3.5v7.56a6.6652,6.6652,0,0,1,4.9838-1.9043C282.9167,165.3811,285.5769,167.425,285.5769,171.9333Z" transform="translate(-8.2034 -9.3226)"/><path class="cls-7" d="M298.1213,179.6892a5.5013,5.5013,0,0,1-3.36,1.0078c-3.2759,0-5.1519-1.7359-5.1519-5.04v-7.1963h-2.4639v-2.8h2.4639v-3.416h3.5v3.416h4.0039v2.8h-4.0039v7.1119c0,1.456.728,2.24,2.0718,2.24a3.1439,3.1439,0,0,0,1.96-.6162Z" transform="translate(-8.2034 -9.3226)"/><path class="cls-7" d="M323.1535,165.549l-5.5161,14.9522h-3.36l-3.8643-10.3042-3.92,10.3042h-3.36l-5.4883-14.9522h3.3042l3.9478,11.0323,4.1162-11.0323h2.94l4.0323,11.0884,4.06-11.0884Z" transform="translate(-8.2034 -9.3226)"/><path class="cls-7" d="M338.2453,174.1452H326.5134c.42,2.1841,2.24,3.584,4.8442,3.584a5.3583,5.3583,0,0,0,4.06-1.624l1.876,2.1562a7.5791,7.5791,0,0,1-6.02,2.4356c-5.0117,0-8.26-3.22-8.26-7.6719a7.4361,7.4361,0,0,1,7.728-7.644c4.3682,0,7.56,3.0522,7.56,7.728C338.3015,173.3894,338.2732,173.8093,338.2453,174.1452Zm-11.76-2.3242H334.97a4.0705,4.0705,0,0,0-4.2281-3.64A4.1321,4.1321,0,0,0,326.4856,171.821Z" transform="translate(-8.2034 -9.3226)"/><path class="cls-7" d="M340.2893,160.9851a2.1318,2.1318,0,0,1,2.24-2.1,2.0836,2.0836,0,0,1,2.24,2.0156,2.2426,2.2426,0,0,1-4.48.084Zm.4761,4.5639h3.5v14.9522h-3.5Z" transform="translate(-8.2034 -9.3226)"/><path class="cls-7" d="M362.801,165.549v12.6841c0,5.4322-2.8276,7.896-8.064,7.896a11.8838,11.8838,0,0,1-7.28-2.1279l1.5678-2.6318a9.0346,9.0346,0,0,0,5.5161,1.7919c3.3042,0,4.76-1.5122,4.76-4.5361v-.7842a6.58,6.58,0,0,1-5.0117,1.9883c-4.2842,0-7.56-2.9121-7.56-7.2519s3.2759-7.1963,7.56-7.1963a6.4735,6.4735,0,0,1,5.18,2.1562V165.549Zm-3.4438,7.0284a4.2038,4.2038,0,0,0-4.5362-4.2281c-2.66,0-4.5639,1.708-4.5639,4.2281a4.5583,4.5583,0,0,0,9.1,0Z" transform="translate(-8.2034 -9.3226)"/><path class="cls-7" d="M381.2248,171.9333v8.5679h-3.5v-8.12c0-2.66-1.3159-3.9478-3.5561-3.9478-2.4917,0-4.1719,1.5117-4.1719,4.5078v7.56h-3.5V159.7253h3.5v7.56a6.6655,6.6655,0,0,1,4.9839-1.9043C378.5647,165.3811,381.2248,167.425,381.2248,171.9333Z" transform="translate(-8.2034 -9.3226)"/><path class="cls-7" d="M393.7693,179.6892a5.5016,5.5016,0,0,1-3.36,1.0078c-3.2759,0-5.1518-1.7359-5.1518-5.04v-7.1963h-2.4639v-2.8h2.4639v-3.416h3.5v3.416h4.0039v2.8h-4.0039v7.1119c0,1.456.728,2.24,2.0717,2.24a3.1465,3.1465,0,0,0,1.9605-.6162Z" transform="translate(-8.2034 -9.3226)"/><path class="cls-7" d="M408.4128,159.53a5.6018,5.6018,0,0,1,3.1641.812l-.98,2.6319a3.4457,3.4457,0,0,0-1.9321-.6163c-1.4561,0-2.2119.8121-2.2119,2.4082v.896h4.1157v2.8h-4.0039v12.04h-3.5v-12.04h-2.4639v-2.8h2.4639v-.9521C403.0647,161.5735,404.9407,159.53,408.4128,159.53Zm6.272,1.4556a2.1315,2.1315,0,0,1,2.24-2.1,2.084,2.084,0,0,1,2.24,2.0156,2.2426,2.2426,0,0,1-4.48.084Zm.4761,4.5639H418.66v14.9522h-3.4995Z" transform="translate(-8.2034 -9.3226)"/><path class="cls-7" d="M422.3562,159.7253h3.5v20.7759h-3.5Z" transform="translate(-8.2034 -9.3226)"/><path class="cls-7" d="M443.5515,174.1452H431.82c.42,2.1841,2.24,3.584,4.8438,3.584a5.3577,5.3577,0,0,0,4.06-1.624l1.8759,2.1562a7.5778,7.5778,0,0,1-6.02,2.4356c-5.0117,0-8.26-3.22-8.26-7.6719a7.4357,7.4357,0,0,1,7.7276-7.644c4.3682,0,7.56,3.0522,7.56,7.728C443.6081,173.3894,443.58,173.8093,443.5515,174.1452Zm-11.76-2.3242h8.4844a4.0709,4.0709,0,0,0-4.2285-3.64A4.1325,4.1325,0,0,0,431.7917,171.821Z" transform="translate(-8.2034 -9.3226)"/><path class="cls-7" d="M477.907,171.9333v8.5679h-3.5v-8.12c0-2.66-1.2315-3.9478-3.3594-3.9478-2.2959,0-3.8926,1.5117-3.8926,4.48v7.5879h-3.5v-8.12c0-2.66-1.2314-3.9478-3.3594-3.9478-2.3242,0-3.8925,1.5117-3.8925,4.48v7.5879h-3.5V165.549h3.332v1.9043a6.1935,6.1935,0,0,1,4.9-2.0722,5.6015,5.6015,0,0,1,5.04,2.4922,6.9781,6.9781,0,0,1,5.6-2.4922C475.3874,165.3811,477.907,167.425,477.907,171.9333Z" transform="translate(-8.2034 -9.3226)"/><path class="cls-7" d="M494.0075,171.737v8.7642h-3.3046v-1.82c-.84,1.2876-2.4639,2.0156-4.7032,2.0156-3.416,0-5.5722-1.876-5.5722-4.48,0-2.4917,1.68-4.4517,6.2158-4.4517h3.8642v-.2241c0-2.0439-1.2324-3.248-3.7246-3.248a7.4041,7.4041,0,0,0-4.5361,1.4839l-1.3711-2.5479a10.512,10.512,0,0,1,6.3272-1.8481C491.5154,165.3811,494.0075,167.425,494.0075,171.737Zm-3.5,4.0884v-1.7363h-3.6123c-2.38,0-3.0244.896-3.0244,1.9883,0,1.26,1.0645,2.0717,2.8565,2.0717A3.8117,3.8117,0,0,0,490.5075,175.8254Z" transform="translate(-8.2034 -9.3226)"/><path class="cls-7" d="M512.3191,171.9333v8.5679h-3.5v-8.12c0-2.66-1.3155-3.9478-3.5557-3.9478-2.4922,0-4.1719,1.5117-4.1719,4.5078v7.56h-3.5V165.549h3.3321v1.9322a6.4993,6.4993,0,0,1,5.1513-2.1C509.6589,165.3811,512.3191,167.425,512.3191,171.9333Z" transform="translate(-8.2034 -9.3226)"/><path class="cls-7" d="M528.3913,171.737v8.7642h-3.3047v-1.82c-.84,1.2876-2.4638,2.0156-4.7031,2.0156-3.416,0-5.5722-1.876-5.5722-4.48,0-2.4917,1.68-4.4517,6.2158-4.4517h3.8642v-.2241c0-2.0439-1.2324-3.248-3.7246-3.248a7.4039,7.4039,0,0,0-4.5361,1.4839l-1.3711-2.5479a10.5119,10.5119,0,0,1,6.3271-1.8481C525.8991,165.3811,528.3913,167.425,528.3913,171.737Zm-3.5,4.0884v-1.7363H521.279c-2.38,0-3.0244.896-3.0244,1.9883,0,1.26,1.0645,2.0717,2.8565,2.0717A3.8118,3.8118,0,0,0,524.8913,175.8254Z" transform="translate(-8.2034 -9.3226)"/><path class="cls-7" d="M546.9538,165.549v12.6841c0,5.4322-2.8281,7.896-8.0634,7.896a11.8856,11.8856,0,0,1-7.28-2.1279l1.5683-2.6318a9.0334,9.0334,0,0,0,5.5157,1.7919c3.3037,0,4.76-1.5122,4.76-4.5361v-.7842a6.58,6.58,0,0,1-5.0117,1.9883c-4.2842,0-7.56-2.9121-7.56-7.2519s3.2754-7.1963,7.56-7.1963a6.4733,6.4733,0,0,1,5.18,2.1562V165.549Zm-3.4433,7.0284a4.204,4.204,0,0,0-4.5362-4.2281c-2.66,0-4.5644,1.708-4.5644,4.2281a4.5586,4.5586,0,0,0,9.1006,0Z" transform="translate(-8.2034 -9.3226)"/><path class="cls-7" d="M564.6491,174.1452H552.9177c.42,2.1841,2.2393,3.584,4.8438,3.584a5.3576,5.3576,0,0,0,4.06-1.624l1.876,2.1562a7.5779,7.5779,0,0,1-6.0195,2.4356c-5.0127,0-8.26-3.22-8.26-7.6719a7.4357,7.4357,0,0,1,7.7275-7.644c4.3682,0,7.56,3.0522,7.56,7.728C564.7048,173.3894,564.6775,173.8093,564.6491,174.1452Zm-11.76-2.3242h8.4834a4.0694,4.0694,0,0,0-4.2276-3.64A4.1324,4.1324,0,0,0,552.8894,171.821Z" transform="translate(-8.2034 -9.3226)"/><path class="cls-7" d="M575.822,165.3811v3.332a4.48,4.48,0,0,0-.8125-.084c-2.66,0-4.34,1.5679-4.34,4.62v7.252h-3.5V165.549h3.332v2.1841C571.51,166.1653,573.33,165.3811,575.822,165.3811Z" transform="translate(-8.2034 -9.3226)"/><path class="cls-7" d="M588.7292,164.7653v.896h4.1162v2.8h-4.0048v12.04h-3.4991v-12.04h-2.4648v-2.8h2.4648v-.9521c0-3.1357,1.876-5.18,5.3477-5.18a5.6007,5.6007,0,0,1,3.1641.812l-.9805,2.6319a3.4454,3.4454,0,0,0-1.9317-.6163C589.4851,162.3571,588.7292,163.1692,588.7292,164.7653Z" transform="translate(-8.2034 -9.3226)"/><path class="cls-7" d="M592.8454,173.0251c0-4.48,3.3594-7.644,7.9512-7.644,4.6484,0,7.9805,3.164,7.9805,7.644s-3.3321,7.6719-7.9805,7.6719C596.2048,180.697,592.8454,177.5051,592.8454,173.0251Zm12.4034,0a4.4441,4.4441,0,1,0-4.4522,4.6763A4.3547,4.3547,0,0,0,605.2488,173.0251Z" transform="translate(-8.2034 -9.3226)"/><path class="cls-7" d="M619.8933,165.3811v3.332a4.4811,4.4811,0,0,0-.8125-.084c-2.66,0-4.34,1.5679-4.34,4.62v7.252h-3.5V165.549h3.3321v2.1841C615.5808,166.1653,617.4011,165.3811,619.8933,165.3811Z" transform="translate(-8.2034 -9.3226)"/><path class="cls-7" d="M642.9363,165.549l-7,16.1563c-1.3721,3.3877-3.2764,4.4238-5.7676,4.4238a6.1837,6.1837,0,0,1-4.0039-1.3721l1.3994-2.5756a3.7918,3.7918,0,0,0,2.5762,1.0356c1.2324,0,1.96-.5879,2.6318-2.0718l.2519-.5879-6.5234-15.0083h3.64l4.7041,11.06,4.7314-11.06Z" transform="translate(-8.2034 -9.3226)"/><path class="cls-7" d="M642.572,173.0251c0-4.48,3.3594-7.644,7.9512-7.644,4.6484,0,7.98,3.164,7.98,7.644s-3.332,7.6719-7.98,7.6719C645.9314,180.697,642.572,177.5051,642.572,173.0251Zm12.4033,0a4.4441,4.4441,0,1,0-4.4521,4.6763A4.3546,4.3546,0,0,0,654.9753,173.0251Z" transform="translate(-8.2034 -9.3226)"/><path class="cls-7" d="M675.4431,165.549v14.9522H672.112v-1.9038a6.11,6.11,0,0,1-4.8164,2.1c-3.8359,0-6.44-2.1-6.44-6.6079v-8.54h3.5v8.064c0,2.7163,1.2881,4.0044,3.5,4.0044,2.4365,0,4.0879-1.5122,4.0879-4.5083v-7.56Z" transform="translate(-8.2034 -9.3226)"/><path class="cls-7" d="M687.7917,165.3811v3.332a4.48,4.48,0,0,0-.8125-.084c-2.66,0-4.34,1.5679-4.34,4.62v7.252h-3.5V165.549h3.332v2.1841C683.4792,166.1653,685.3,165.3811,687.7917,165.3811Z" transform="translate(-8.2034 -9.3226)"/><path class="cls-7" d="M715.1745,180.5012l-.0273-12.9917-6.44,10.7519h-1.6241l-6.44-10.5839v12.8237h-3.4717v-19.6h2.9961l7.7842,12.9922,7.6436-12.9922h2.9961l.0283,19.6Z" transform="translate(-8.2034 -9.3226)"/><path class="cls-7" d="M735.1941,171.737v8.7642H731.89v-1.82c-.84,1.2876-2.4639,2.0156-4.7041,2.0156-3.4161,0-5.5713-1.876-5.5713-4.48,0-2.4917,1.68-4.4517,6.2158-4.4517h3.8633v-.2241c0-2.0439-1.2315-3.248-3.7237-3.248a7.4041,7.4041,0,0,0-4.5361,1.4839l-1.3721-2.5479a10.5153,10.5153,0,0,1,6.3282-1.8481C732.7029,165.3811,735.1941,167.425,735.1941,171.737Zm-3.5,4.0884v-1.7363h-3.6114c-2.38,0-3.0244.896-3.0244,1.9883,0,1.26,1.0645,2.0717,2.8565,2.0717A3.8105,3.8105,0,0,0,731.6941,175.8254Z" transform="translate(-8.2034 -9.3226)"/><path class="cls-7" d="M737.6863,173.0251c0-4.48,3.3593-7.644,8.0918-7.644,2.9121,0,5.2353,1.2041,6.3837,3.4721l-2.6884,1.5679a4.23,4.23,0,0,0-3.7237-2.0718,4.6782,4.6782,0,0,0,0,9.3521,4.23,4.23,0,0,0,3.7237-2.0723l2.6884,1.5679a6.7971,6.7971,0,0,1-6.3837,3.5C741.0456,180.697,737.6863,177.5051,737.6863,173.0251Z" transform="translate(-8.2034 -9.3226)"/><path class="cls-7" d="M753.6736,178.3733a2.2961,2.2961,0,1,1,4.5918,0,2.2961,2.2961,0,1,1-4.5918,0Z" transform="translate(-8.2034 -9.3226)"/><g id="Logo_Header" data-name="Logo Header"><g id="Vector_Icon" data-name="Vector Icon"><g id="Drive"><path id="Drive_Faceplate" data-name="Drive Faceplate" class="cls-8" d="M139.9049,161.5147H16.45a7.3548,7.3548,0,0,1-7.3134-8.1332l10.56-99.2054A7.3546,7.3546,0,0,1,27.0106,47.6H127.6978a7.3546,7.3546,0,0,1,7.3,6.4565l12.2072,99.2054A7.3548,7.3548,0,0,1,139.9049,161.5147Z" transform="translate(-8.2034 -9.3226)"/><g id="Drive_Grill" data-name="Drive Grill"><g id="Plate"><path id="Drive_Grill_Plate_Bg" data-name="Drive Grill Plate Bg" class="cls-9" d="M8.2034,176.8831a7.3547,7.3547,0,0,0,7.3547,7.3546H140.7975a7.3547,7.3547,0,0,0,7.3547-7.3546l-.6652-21.0522-.2263-1.0454a7.4591,7.4591,0,0,1-7.4237,6.72H16.3825c-4.13,0-7.3148-3.7991-7.2709-7.8387" transform="translate(-8.2034 -9.3226)"/><path id="Drive_Grill_Plate_Front" data-name="Drive Grill Plate Front" class="cls-10" d="M37.2222,161.5147v15.4119a7.3209,7.3209,0,0,0,7.3208,7.3208l61.5058-.0048a7.3208,7.3208,0,0,0,7.3208-7.3208V161.51Z" transform="translate(-8.2034 -9.3226)"/></g><path id="Accent" class="cls-10" d="M147.2476,153.7341c-.0194-.1109.363,6.098-5.1506,6.2121H17.5867a8.6918,8.6918,0,0,1-3.2529-.5976,9.0708,9.0708,0,0,1-5.2222-5.6822c0,3.8983,2.6783,7.8387,7.2709,7.8387H142.097C146.69,161.5051,148.1391,158.8122,147.2476,153.7341Z" transform="translate(-8.2034 -9.3226)"/><g id="Vents"><g id="Drive_Grill_Right" data-name="Drive Grill Right"><rect class="cls-7" x="97.8454" y="153.019" width="2.8924" height="19.4656" rx="1.1649"/><rect class="cls-7" x="74.7521" y="153.019" width="2.8924" height="19.4656" rx="1.1649"/><rect class="cls-7" x="79.1739" y="153.019" width="2.8924" height="19.4656" rx="1.1649"/><rect class="cls-7" x="83.9205" y="153.019" width="2.8924" height="19.4656" rx="1.1649"/><rect class="cls-7" x="88.6299" y="153.019" width="2.8924" height="19.4656" rx="1.1649"/><rect class="cls-7" x="93.3394" y="153.019" width="2.8924" height="19.4656" rx="1.1649"/></g><g id="Drive_Grill_Left" data-name="Drive Grill Left"><rect class="cls-7" x="61.1848" y="153.019" width="2.8924" height="19.4656" rx="1.1649"/><rect class="cls-7" x="33.4472" y="153.019" width="2.8924" height="19.4656" rx="1.1649"/><rect class="cls-7" x="38.0915" y="153.019" width="2.8924" height="19.4656" rx="1.1649"/><rect class="cls-7" x="42.5133" y="153.019" width="2.8924" height="19.4656" rx="1.1649"/><rect class="cls-7" x="47.2599" y="153.019" width="2.8924" height="19.4656" rx="1.1649"/><rect class="cls-7" x="51.9693" y="153.019" width="2.8924" height="19.4656" rx="1.1649"/><rect class="cls-7" x="56.6788" y="153.019" width="2.8924" height="19.4656" rx="1.1649"/></g></g></g><g id="Drive_Large_Circle" data-name="Drive Large Circle"><ellipse id="HDD_-LargeDisk_Background" data-name="HDD -LargeDisk Background" class="cls-11" cx="69.4147" cy="108.5154" rx="52.7346" ry="36.9292"/><ellipse id="HDD_-LargeDisk_Top" data-name="HDD -LargeDisk Top" class="cls-8" cx="69.4147" cy="106.0849" rx="50.1078" ry="34.1438"/></g><g id="Drive_Small_Circle" data-name="Drive Small Circle"><ellipse id="bottom" class="cls-11" cx="69.8632" cy="106.0849" rx="20.692" ry="15.1418"/><ellipse id="top" class="cls-8" cx="69.8632" cy="104.8296" rx="19.4324" ry="13.4808"/></g><g id="Drive_Square" data-name="Drive Square"><path id="Drive_Square_Bottom" data-name="Drive Square Bottom" class="cls-9" d="M114.4034,75.5564,40.814,75.2518A7.3547,7.3547,0,0,1,33.5692,66.82l.96-6.4814a7.3547,7.3547,0,0,1,7.2753-6.2771h71.4548a7.3547,7.3547,0,0,1,7.247,6.1l1.1745,6.786A7.3546,7.3546,0,0,1,114.4034,75.5564Z" transform="translate(-8.2034 -9.3226)"/><path id="Drive_Square_Top" data-name="Drive Square Top" class="cls-8" d="M112.0161,72.7383H44.9c-4.4286-.0177-7.9888-1.2329-7.4149-5.6242l.7812-7.35c.4786-3.6623,3.5314-4.9569,7.2249-4.9569h66.4876c3.56,0,5.993,1.7843,6.6234,5.2875l.8119,4.5127C120.2278,69.13,116.6111,72.7566,112.0161,72.7383Z" transform="translate(-8.2034 -9.3226)"/></g><g id="Sticker"><path id="Background" class="cls-12" d="M78.0542,67.8228l-32.2618-.1471a3.455,3.455,0,0,1-3.1761-4.07l.4208-3.1286a3.34,3.34,0,0,1,3.1895-3.03h31.326A3.33,3.33,0,0,1,80.73,60.3916l.5149,3.2756A3.46,3.46,0,0,1,78.0542,67.8228Z" transform="translate(-8.2034 -9.3226)"/><g id="Sticker_writings" data-name="Sticker writings"><rect id="bottom-2" data-name="bottom" class="cls-9" x="36.6967" y="55.1922" width="27.7467" height="1.5141" rx="0.6098"/><rect id="middle" class="cls-9" x="36.6967" y="52.8169" width="14.0182" height="1.5141" rx="0.6098"/><rect id="top-2" data-name="top" class="cls-9" x="36.6967" y="50.4417" width="10.0829" height="1.5141" rx="0.6098"/></g></g><g id="Screws"><circle class="cls-9" cx="7.0363" cy="145.4447" r="2.5077"/><circle class="cls-9" cx="17.8178" cy="44.72" r="2.5077"/><circle class="cls-9" cx="134.1017" cy="145.7695" r="2.5077"/><circle class="cls-9" cx="119.5225" cy="43.9969" r="2.5077"/></g></g><g id="Calipher_Bottom" data-name="Calipher Bottom"><path id="bottom-3" data-name="bottom" class="cls-13" d="M153.5461,200.3051l56.5,0a2.7024,2.7024,0,0,0,2.7029-2.7019v-7.9974l-59.2033,0Z" transform="translate(-8.2034 -9.3226)"/><g id="grill"><rect id="ScaleRingletTop_-AccentLighter" data-name="ScaleRingletTop -AccentLighter" class="cls-9" x="149.2922" y="182.6841" width="51.4703" height="6.0407" rx="2.4329"/><rect id="ScaleRingletTop_-AccentDarker" data-name="ScaleRingletTop -AccentDarker" class="cls-12" x="151.4735" y="184.2288" width="47.1708" height="3.1149" rx="1.2546"/></g><path id="left" class="cls-13" d="M72.711,170.179a2.7022,2.7022,0,0,1-2.0688-2.6265v8.72a5.479,5.479,0,0,0,4.2882,5.0343l78.6157,18.998V189.6058Z" transform="translate(-8.2034 -9.3226)"/><path id="top-3" data-name="top" class="cls-14" d="M73.3451,164.8506a2.7024,2.7024,0,0,0-2.7029,2.7019h0a2.7022,2.7022,0,0,0,2.0687,2.6265l80.8352,19.4268,59.2033,0-6.5866-22.0646a4.1728,4.1728,0,0,0-3.7864-2.6744Z" transform="translate(-8.2034 -9.3226)"/></g><g id="Calipher_Top" data-name="Calipher Top"><path id="bottom-4" data-name="bottom" class="cls-13" d="M78.7434,40.8219V47.6h48.9544a7.3619,7.3619,0,0,1,6.5322,3.9662l42.537.01a3.3808,3.3808,0,0,0,3.3131-3.4446l.0081-7.1777Z" transform="translate(-8.2034 -9.3226)"/><g id="grill-2" data-name="grill"><rect id="ScaleRingletTop_-AccentLighter-2" data-name="ScaleRingletTop -AccentLighter" class="cls-9" x="129.1763" y="33.9233" width="39.9748" height="6.0407" rx="2.4329"/><rect id="ScaleRingletTop_-AccentDarker-2" data-name="ScaleRingletTop -AccentDarker" class="cls-12" x="130.8726" y="35.4683" width="36.6355" height="3.1149" rx="1.2546"/></g><path id="top-4" data-name="top" class="cls-15" d="M179.4768,31.0544a2.9689,2.9689,0,0,0-2.9123-2.84H133.9761a2.8163,2.8163,0,0,0-.3483.0217l-52.3145,6.539a2.9953,2.9953,0,0,0-2.57,3.0124v3.0341l101.3448.1315Z" transform="translate(-8.2034 -9.3226)"/></g><g id="Ruler"><path id="Ruler_Bottom_-Shadow" data-name="Ruler Bottom -Shadow" class="cls-9" d="M209.7411,221.194H165.6548a.9232.9232,0,0,1-.9226-.7931L161.5163,195.91a.9163.9163,0,0,1,.9189-1.0243l41.92-.1431a.9253.9253,0,0,1,.9143.7235l5.382,24.6336A.9146.9146,0,0,1,209.7411,221.194Z" transform="translate(-8.2034 -9.3226)"/><path id="Ruler_Bottom_-Main" data-name="Ruler Bottom -Main" class="cls-8" d="M208.3294,219.6151H166.8746a.868.868,0,0,1-.8675-.7458l-3.024-23.0287a.8615.8615,0,0,1,.864-.9631l39.418-.1346a.87.87,0,0,1,.86.68l5.0607,23.1632A.86.86,0,0,1,208.3294,219.6151Z" transform="translate(-8.2034 -9.3226)"/><path id="Ruler_Top_-Shadow" data-name="Ruler Top -Shadow" class="cls-9" d="M156.9353,164.8506,140.6939,46.8553a.5735.5735,0,0,1,.5654-.6518l31.5292-.1589a.5736.5736,0,0,1,.5642.4552l24.959,118.3662Z" transform="translate(-8.2034 -9.3226)"/><path id="Ruler_Top_-Main" data-name="Ruler Top -Main" class="cls-8" d="M158.0764,164.8357l-15.9745-117.99a.5582.5582,0,0,1,.5153-.6518l29.2809-.1554a.5366.5366,0,0,1,.5142.4552l25,118.3739Z" transform="translate(-8.2034 -9.3226)"/><g id="Ruler_Lines" data-name="Ruler Lines"><g id="new"><g id="Ruler_Lines_short_" data-name="Ruler Lines (short)"><rect class="cls-9" x="134.2949" y="49.5087" width="9.3565" height="0.567" rx="0.2284"/><rect class="cls-9" x="135.2377" y="55.4543" width="9.0425" height="0.567" rx="0.2284"/><rect class="cls-9" x="135.8538" y="61.3344" width="9.1278" height="0.567" rx="0.2284"/><rect class="cls-9" x="136.92" y="67.3823" width="8.7029" height="0.567" rx="0.2284"/><rect class="cls-9" x="138.4989" y="79.2654" width="8.3311" height="0.567" rx="0.2284"/><rect class="cls-9" x="139.4231" y="85.1467" width="8.4763" height="0.567" rx="0.2284"/><rect class="cls-9" x="140.1792" y="91.1399" width="8.5069" height="0.567" rx="0.2284"/><rect class="cls-9" x="141.0254" y="97.0465" width="8.5" height="0.567" rx="0.2284"/><rect class="cls-9" x="142.7095" y="108.8598" width="7.6456" height="0.567" rx="0.2284"/><rect class="cls-9" x="143.6047" y="114.8147" width="7.6462" height="0.567" rx="0.2284"/><rect class="cls-9" x="144.3754" y="120.8589" width="7.6912" height="0.567" rx="0.2284"/><rect class="cls-9" x="145.1754" y="126.6988" width="7.5883" height="0.567" rx="0.2284"/><rect class="cls-9" x="147.0912" y="138.5425" width="7.15" height="0.567" rx="0.2284"/><rect class="cls-9" x="147.9426" y="144.6056" width="7.1035" height="0.567" rx="0.2284"/><rect class="cls-9" x="148.6356" y="150.4799" width="6.3649" height="0.567" rx="0.2284"/><rect class="cls-9" x="155.8772" y="197.5852" width="5.829" height="0.567" rx="0.2284"/><rect class="cls-9" x="156.3916" y="203.6985" width="6.1829" height="0.567" rx="0.2284"/></g><g id="Ruler_Lines_long_" data-name="Ruler Lines (long)"><rect class="cls-9" x="133.7669" y="43.5821" width="17.3296" height="0.567" rx="0.2284"/><rect class="cls-9" x="137.5775" y="73.1601" width="19.2831" height="0.567" rx="0.2284"/><rect class="cls-9" x="142.1228" y="102.9531" width="20.4809" height="0.567" rx="0.2284"/><rect class="cls-9" x="145.8858" y="132.5387" width="22.4712" height="0.6096" rx="0.2455"/><rect class="cls-9" x="154.7725" y="191.592" width="22.7568" height="0.6096" rx="0.2455"/></g></g></g></g></g><path class="cls-16" d="M335.2263,58.593,307.7473,142.59H286.8684l-18.48-56.878L249.31,142.59H228.5505L200.9514,58.593h20.1592L240.07,117.6306,259.8694,58.593h17.999l19.1992,59.5176,19.56-59.5176Z" transform="translate(-8.2034 -9.3226)"/><path class="cls-16" d="M408.6682,105.6311V142.59H389.9494V108.511c0-10.4395-4.8-15.2393-13.08-15.2393-9,0-15.4795,5.52-15.4795,17.3989V142.59H342.6711V53.5534H361.39V84.7517c5.0395-5.04,12.24-7.68,20.519-7.68C397.1487,77.072,408.6682,85.9519,408.6682,105.6311Z" transform="translate(-8.2034 -9.3226)"/><path class="cls-16" d="M478.8679,105.7512V142.59H461.3484v-8.04c-3.48,5.8794-10.1993,8.9995-19.68,8.9995-15.1192,0-24.1182-8.3994-24.1182-19.5591,0-11.4,8.0391-19.3193,27.7188-19.3193h14.8789c0-8.0395-4.8-12.7192-14.8789-12.7192-6.84,0-13.92,2.28-18.6,6l-6.7193-13.08c7.08-5.04,17.5191-7.8,27.8384-7.8C467.4685,77.072,478.8679,86.1921,478.8679,105.7512Zm-18.72,16.439v-6.6H447.3093c-8.76,0-11.5195,3.24-11.5195,7.56,0,4.68,3.959,7.8,10.56,7.8C452.5886,130.95,457.988,128.07,460.1482,122.19Z" transform="translate(-8.2034 -9.3226)"/><path class="cls-16" d="M533.5866,139.4694c-3.84,2.76-9.4794,4.08-15.2392,4.08-15.2393,0-24.1191-7.8-24.1191-23.1592V93.8718h-9.959V79.4724h9.959v-15.72h18.72v15.72h16.0791V93.8718H512.948v26.2788c0,5.52,3,8.5195,8.039,8.5195a12.6162,12.6162,0,0,0,7.5606-2.4Z" transform="translate(-8.2034 -9.3226)"/><path class="cls-16" d="M535.029,134.31l6.6-14.6392a49.4049,49.4049,0,0,0,27.7188,8.76c11.5195,0,16.1992-3.84,16.1992-9,0-15.7193-48.8379-4.92-48.8379-36.1182,0-14.28,11.52-26.1592,35.3985-26.1592,10.5595,0,21.3593,2.52,29.1591,7.44l-6,14.76a47.44,47.44,0,0,0-23.2793-6.6c-11.5195,0-15.9589,4.3193-15.9589,9.6,0,15.479,48.8378,4.8,48.8378,35.6381,0,14.04-11.64,26.0391-35.6386,26.0391C555.9079,144.03,542.4685,140.07,535.029,134.31Z" transform="translate(-8.2034 -9.3226)"/><path class="cls-16" d="M610.7468,58.593c0-5.88,4.68-10.44,11.6387-10.44s11.64,4.32,11.64,10.08c0,6.24-4.68,10.7993-11.64,10.7993S610.7468,64.4729,610.7468,58.593Zm2.2793,19.4389h18.72V142.59h-18.72Z" transform="translate(-8.2034 -9.3226)"/><path class="cls-16" d="M698.4636,128.19V142.59H640.8659V131.31l32.879-38.8789H641.7058v-14.4h55.6777v11.28L664.5046,128.19Z" transform="translate(-8.2034 -9.3226)"/><path class="cls-16" d="M768.6648,115.5905H719.8269c1.8,8.04,8.64,12.96,18.4785,12.96,6.84,0,11.76-2.04,16.1992-6.24l9.96,10.8c-6,6.84-14.999,10.4394-26.6387,10.4394-22.3193,0-36.8389-14.04-36.8389-33.2387,0-19.3189,14.76-33.2388,34.4385-33.2388,18.96,0,33.5986,12.72,33.5986,33.479C769.0241,111.9909,768.7849,114.031,768.6648,115.5905Zm-49.0782-10.9194h31.7989c-1.32-8.16-7.44-13.4394-15.84-13.4394C727.0261,91.2317,720.906,96.3913,719.5866,104.6711Z" transform="translate(-8.2034 -9.3226)"/></g></g></svg>