<svg xmlns="http://www.w3.org/2000/svg" width="204.5461" height="192.9792" viewBox="0 0 204.5461 192.9792"><defs><style>.cls-1{fill:#c3c3c3;}.cls-2{fill:#6b6b67;}.cls-3{fill:#969695;}.cls-4{fill:#4c4c4b;}.cls-5{fill:#6d6d6d;}.cls-6{fill:#3d3d3b;}.cls-7{fill:#e2b445;}.cls-8{fill:#ffcd4c;}.cls-9{fill:#ffcc4a;}</style></defs><title>Logo</title><g id="Header"><g id="Logo_Header" data-name="Logo Header"><g id="Vector_Icon" data-name="Vector Icon"><g id="Drive"><path id="Drive_Faceplate" data-name="Drive Faceplate" class="cls-1" d="M147.4366,141.5778H23.9821a7.3548,7.3548,0,0,1-7.3134-8.1332l10.56-99.2054a7.3546,7.3546,0,0,1,7.3134-6.5762H135.23a7.3547,7.3547,0,0,1,7.3,6.4565l12.2072,99.2054A7.3547,7.3547,0,0,1,147.4366,141.5778Z" transform="translate(-15.7351 -8.2779)"/><g id="Drive_Grill" data-name="Drive Grill"><g id="Plate"><path id="Drive_Grill_Plate_Bg" data-name="Drive Grill Plate Bg" class="cls-2" d="M15.7351,156.9462a7.3547,7.3547,0,0,0,7.3547,7.3547H148.3292a7.3547,7.3547,0,0,0,7.3547-7.3547l-.6652-21.0522-.2263-1.0454a7.459,7.459,0,0,1-7.4237,6.72H23.9142c-4.13,0-7.3148-3.7991-7.2709-7.8387" transform="translate(-15.7351 -8.2779)"/><path id="Drive_Grill_Plate_Front" data-name="Drive Grill Plate Front" class="cls-3" d="M44.7539,141.5778V156.99a7.3209,7.3209,0,0,0,7.3208,7.3208l61.5058-.0048a7.3208,7.3208,0,0,0,7.3208-7.3208V141.573Z" transform="translate(-15.7351 -8.2779)"/></g><path id="Accent" class="cls-3" d="M154.7793,133.7972c-.0194-.1109.363,6.098-5.1506,6.2121H25.1184a8.69,8.69,0,0,1-3.2529-.5976,9.0706,9.0706,0,0,1-5.2222-5.6822c0,3.8983,2.6783,7.8387,7.2709,7.8387H149.6287C154.2212,141.5682,155.6709,138.8753,154.7793,133.7972Z" transform="translate(-15.7351 -8.2779)"/><g id="Vents"><g id="Drive_Grill_Right" data-name="Drive Grill Right"><rect class="cls-4" x="97.8454" y="134.1269" width="2.8924" height="19.4656" rx="1.1649"/><rect class="cls-4" x="74.7521" y="134.1269" width="2.8924" height="19.4656" rx="1.1649"/><rect class="cls-4" x="79.1739" y="134.1269" width="2.8924" height="19.4656" rx="1.1649"/><rect class="cls-4" x="83.9205" y="134.1269" width="2.8924" height="19.4656" rx="1.1649"/><rect class="cls-4" x="88.6299" y="134.1269" width="2.8924" height="19.4656" rx="1.1649"/><rect class="cls-4" x="93.3394" y="134.1269" width="2.8924" height="19.4656" rx="1.1649"/></g><g id="Drive_Grill_Left" data-name="Drive Grill Left"><rect class="cls-4" x="61.1848" y="134.1269" width="2.8924" height="19.4656" rx="1.1649"/><rect class="cls-4" x="33.4472" y="134.1269" width="2.8924" height="19.4656" rx="1.1649"/><rect class="cls-4" x="38.0915" y="134.1269" width="2.8924" height="19.4656" rx="1.1649"/><rect class="cls-4" x="42.5133" y="134.1269" width="2.8924" height="19.4656" rx="1.1649"/><rect class="cls-4" x="47.2599" y="134.1269" width="2.8924" height="19.4656" rx="1.1649"/><rect class="cls-4" x="51.9693" y="134.1269" width="2.8924" height="19.4656" rx="1.1649"/><rect class="cls-4" x="56.6788" y="134.1269" width="2.8924" height="19.4656" rx="1.1649"/></g></g></g><g id="Drive_Large_Circle" data-name="Drive Large Circle"><ellipse id="HDD_-LargeDisk_Background" data-name="HDD -LargeDisk Background" class="cls-5" cx="69.4147" cy="89.6233" rx="52.7346" ry="36.9292"/><ellipse id="HDD_-LargeDisk_Top" data-name="HDD -LargeDisk Top" class="cls-1" cx="69.4147" cy="87.1928" rx="50.1078" ry="34.1438"/></g><g id="Drive_Small_Circle" data-name="Drive Small Circle"><ellipse id="bottom" class="cls-5" cx="69.8632" cy="87.1928" rx="20.692" ry="15.1418"/><ellipse id="top" class="cls-1" cx="69.8632" cy="85.9374" rx="19.4324" ry="13.4808"/></g><g id="Drive_Square" data-name="Drive Square"><path id="Drive_Square_Bottom" data-name="Drive Square Bottom" class="cls-2" d="M121.9351,55.62l-73.5893-.3047a7.3547,7.3547,0,0,1-7.2449-8.4322l.96-6.4813a7.3546,7.3546,0,0,1,7.2753-6.2771h71.4549a7.3546,7.3546,0,0,1,7.2469,6.1l1.1745,6.7859A7.3547,7.3547,0,0,1,121.9351,55.62Z" transform="translate(-15.7351 -8.2779)"/><path id="Drive_Square_Top" data-name="Drive Square Top" class="cls-1" d="M119.5478,52.8014H52.4318c-4.4287-.0177-7.9889-1.2329-7.4149-5.6242l.7811-7.35c.4786-3.6622,3.5314-4.9569,7.2249-4.9569h66.4876c3.56,0,5.9931,1.7843,6.6234,5.2875l.8119,4.5127C127.76,49.1931,124.1428,52.82,119.5478,52.8014Z" transform="translate(-15.7351 -8.2779)"/></g><g id="Sticker"><path id="Background" class="cls-6" d="M85.5859,47.8859l-32.2618-.1471a3.455,3.455,0,0,1-3.1761-4.07l.4208-3.1286a3.34,3.34,0,0,1,3.19-3.03H85.0843a3.33,3.33,0,0,1,3.1771,2.9446l.5149,3.2757A3.46,3.46,0,0,1,85.5859,47.8859Z" transform="translate(-15.7351 -8.2779)"/><g id="Sticker_writings" data-name="Sticker writings"><rect id="bottom-2" data-name="bottom" class="cls-2" x="36.6967" y="36.3" width="27.7467" height="1.5141" rx="0.6098"/><rect id="middle" class="cls-2" x="36.6967" y="33.9248" width="14.0182" height="1.5141" rx="0.6098"/><rect id="top-2" data-name="top" class="cls-2" x="36.6967" y="31.5496" width="10.0829" height="1.5141" rx="0.6098"/></g></g><g id="Screws"><circle class="cls-2" cx="7.0363" cy="126.5525" r="2.5077"/><circle class="cls-2" cx="17.8178" cy="25.8279" r="2.5077"/><circle class="cls-2" cx="134.1017" cy="126.8773" r="2.5077"/><circle class="cls-2" cx="119.5225" cy="25.1048" r="2.5077"/></g></g><g id="Calipher_Bottom" data-name="Calipher Bottom"><path id="bottom-3" data-name="bottom" class="cls-7" d="M161.0778,180.3682l56.5,0a2.7024,2.7024,0,0,0,2.7029-2.7019v-7.9974l-59.2033,0Z" transform="translate(-15.7351 -8.2779)"/><g id="grill"><rect id="ScaleRingletTop_-AccentLighter" data-name="ScaleRingletTop -AccentLighter" class="cls-2" x="149.2922" y="163.7919" width="51.4703" height="6.0407" rx="2.4329"/><rect id="ScaleRingletTop_-AccentDarker" data-name="ScaleRingletTop -AccentDarker" class="cls-6" x="151.4735" y="165.3366" width="47.1708" height="3.1149" rx="1.2546"/></g><path id="left" class="cls-7" d="M80.2427,150.2421a2.7022,2.7022,0,0,1-2.0688-2.6265v8.72a5.479,5.479,0,0,0,4.2882,5.0343l78.6157,18.998V169.6689Z" transform="translate(-15.7351 -8.2779)"/><path id="top-3" data-name="top" class="cls-8" d="M80.8769,144.9137a2.7024,2.7024,0,0,0-2.703,2.7019h0a2.7022,2.7022,0,0,0,2.0688,2.6265l80.8351,19.4268,59.2033,0-6.5866-22.0646a4.1728,4.1728,0,0,0-3.7864-2.6744Z" transform="translate(-15.7351 -8.2779)"/></g><g id="Calipher_Top" data-name="Calipher Top"><path id="bottom-4" data-name="bottom" class="cls-7" d="M86.2751,20.885v6.778H135.23a7.3617,7.3617,0,0,1,6.5322,3.9662l42.537.01a3.3807,3.3807,0,0,0,3.3131-3.4445l.0081-7.1778Z" transform="translate(-15.7351 -8.2779)"/><g id="grill-2" data-name="grill"><rect id="ScaleRingletTop_-AccentLighter-2" data-name="ScaleRingletTop -AccentLighter" class="cls-2" x="129.1763" y="15.0311" width="39.9748" height="6.0407" rx="2.4329"/><rect id="ScaleRingletTop_-AccentDarker-2" data-name="ScaleRingletTop -AccentDarker" class="cls-6" x="130.8726" y="16.5762" width="36.6355" height="3.1149" rx="1.2546"/></g><path id="top-4" data-name="top" class="cls-9" d="M187.0085,11.1175a2.9689,2.9689,0,0,0-2.9123-2.84H141.5078A2.8174,2.8174,0,0,0,141.16,8.3L88.845,14.8385a2.9953,2.9953,0,0,0-2.57,3.0124V20.885l101.3448.1315Z" transform="translate(-15.7351 -8.2779)"/></g><g id="Ruler"><path id="Ruler_Bottom_-Shadow" data-name="Ruler Bottom -Shadow" class="cls-2" d="M217.2729,201.2571H173.1865a.9232.9232,0,0,1-.9226-.7931l-3.2159-24.4906a.9164.9164,0,0,1,.9189-1.0243l41.92-.143a.9251.9251,0,0,1,.9143.7234l5.3821,24.6336A.9147.9147,0,0,1,217.2729,201.2571Z" transform="translate(-15.7351 -8.2779)"/><path id="Ruler_Bottom_-Main" data-name="Ruler Bottom -Main" class="cls-1" d="M215.8611,199.6782H174.4063a.868.868,0,0,1-.8675-.7457l-3.024-23.0288a.8616.8616,0,0,1,.8641-.9631l39.4179-.1345a.87.87,0,0,1,.86.68l5.0608,23.1633A.86.86,0,0,1,215.8611,199.6782Z" transform="translate(-15.7351 -8.2779)"/><path id="Ruler_Top_-Shadow" data-name="Ruler Top -Shadow" class="cls-2" d="M164.467,144.9137,148.2256,26.9184a.5735.5735,0,0,1,.5654-.6518l31.5292-.1589a.5738.5738,0,0,1,.5642.4553l24.959,118.3661Z" transform="translate(-15.7351 -8.2779)"/><path id="Ruler_Top_-Main" data-name="Ruler Top -Main" class="cls-1" d="M165.6081,144.8988l-15.9745-117.99a.5582.5582,0,0,1,.5154-.6518l29.2808-.1554a.5368.5368,0,0,1,.5143.4552l25,118.3739Z" transform="translate(-15.7351 -8.2779)"/><g id="Ruler_Lines" data-name="Ruler Lines"><g id="new"><g id="Ruler_Lines_short_" data-name="Ruler Lines (short)"><rect class="cls-2" x="134.2949" y="30.6166" width="9.3565" height="0.567" rx="0.2284"/><rect class="cls-2" x="135.2377" y="36.5622" width="9.0425" height="0.567" rx="0.2284"/><rect class="cls-2" x="135.8538" y="42.4423" width="9.1278" height="0.567" rx="0.2284"/><rect class="cls-2" x="136.92" y="48.4901" width="8.7029" height="0.567" rx="0.2284"/><rect class="cls-2" x="138.4989" y="60.3733" width="8.3311" height="0.567" rx="0.2284"/><rect class="cls-2" x="139.4231" y="66.2545" width="8.4763" height="0.567" rx="0.2284"/><rect class="cls-2" x="140.1792" y="72.2478" width="8.5069" height="0.567" rx="0.2284"/><rect class="cls-2" x="141.0254" y="78.1544" width="8.5" height="0.567" rx="0.2284"/><rect class="cls-2" x="142.7095" y="89.9676" width="7.6456" height="0.567" rx="0.2284"/><rect class="cls-2" x="143.6047" y="95.9226" width="7.6462" height="0.567" rx="0.2284"/><rect class="cls-2" x="144.3754" y="101.9667" width="7.6912" height="0.567" rx="0.2284"/><rect class="cls-2" x="145.1754" y="107.8066" width="7.5883" height="0.567" rx="0.2284"/><rect class="cls-2" x="147.0912" y="119.6503" width="7.15" height="0.567" rx="0.2284"/><rect class="cls-2" x="147.9426" y="125.7134" width="7.1035" height="0.567" rx="0.2284"/><rect class="cls-2" x="148.6356" y="131.5878" width="6.3649" height="0.567" rx="0.2284"/><rect class="cls-2" x="155.8772" y="178.6931" width="5.829" height="0.567" rx="0.2284"/><rect class="cls-2" x="156.3916" y="184.8064" width="6.1829" height="0.567" rx="0.2284"/></g><g id="Ruler_Lines_long_" data-name="Ruler Lines (long)"><rect class="cls-2" x="133.7669" y="24.69" width="17.3296" height="0.567" rx="0.2284"/><rect class="cls-2" x="137.5775" y="54.2679" width="19.2831" height="0.567" rx="0.2284"/><rect class="cls-2" x="142.1228" y="84.061" width="20.4809" height="0.567" rx="0.2284"/><rect class="cls-2" x="145.8858" y="113.6465" width="22.4712" height="0.6096" rx="0.2455"/><rect class="cls-2" x="154.7725" y="172.6999" width="22.7568" height="0.6096" rx="0.2455"/></g></g></g></g></g></g></g></svg>